<?xml version="1.0" encoding="UTF-8"?>
<!DOCTYPE svg PUBLIC "-//W3C//DTD SVG 1.1//EN" "http://www.w3.org/Graphics/SVG/1.1/DTD/svg11.dtd">
<svg xmlns="http://www.w3.org/2000/svg" version="1.1" width="4167px" height="4167px" style="shape-rendering:geometricPrecision; text-rendering:geometricPrecision; image-rendering:optimizeQuality; fill-rule:evenodd; clip-rule:evenodd" xmlns:xlink="http://www.w3.org/1999/xlink">
<g><path style="opacity:0.998" fill="#fefffe" d="M 2234.5,171.5 C 2543.03,166.137 2835.03,232.637 3110.5,371C 3284.07,457.487 3441.24,566.987 3582,699.5C 3589.77,712.476 3585.94,717.309 3570.5,714C 3222.11,472.153 2836.45,375.82 2413.5,425C 2091.36,467.633 1807.03,592.966 1560.5,801C 1332.99,999.688 1171.15,1242.85 1075,1530.5C 996.434,1770.86 977.767,2015.86 1019,2265.5C 1083.96,2688.45 1282.46,3032.61 1614.5,3298C 1718.72,3381.83 1831.38,3453.16 1952.5,3512C 2182.08,3619.47 2423.75,3669.81 2677.5,3663C 3074.48,3655.52 3421.82,3522.52 3719.5,3264C 3749,3237.17 3778.5,3210.33 3808,3183.5C 3813.11,3189.71 3813.78,3196.38 3810,3203.5C 3770.43,3254.6 3729.43,3304.6 3687,3353.5C 3417.34,3653.51 3084.84,3849.68 2689.5,3942C 2596.05,3964.46 2501.38,3979.13 2405.5,3986C 2050.01,4011.57 1712.01,3943.57 1391.5,3782C 1034.7,3596.2 761.871,3325.7 573,2970.5C 455.635,2744.73 384.969,2505.06 361,2251.5C 359.274,2243.32 356.941,2235.32 354,2227.5C 353.333,2130.5 353.333,2033.5 354,1936.5C 358.987,1928.2 361.987,1919.2 363,1909.5C 390.861,1581.21 497.194,1281.54 682,1010.5C 792.324,850.146 923.158,707.98 1074.5,584C 1302.04,402.757 1559.04,281.091 1845.5,219C 1973.85,191.081 2103.51,175.248 2234.5,171.5 Z"/></g>
<g><path style="opacity:0.996" fill="#fefffe" d="M 2592.5,743.5 C 2845.9,739.264 3081.23,801.764 3298.5,931C 3313,940.084 3327.34,949.418 3341.5,959C 3312.92,952.022 3284.25,945.022 3255.5,938C 2844.39,844.878 2476.06,930.545 2150.5,1195C 1966.93,1350.15 1841.09,1543.65 1773,1775.5C 1669.08,2132.82 1714.74,2469.48 1910,2785.5C 2053.87,3014.39 2250.71,3180.89 2500.5,3285C 2545.49,3303.44 2591.15,3320.11 2637.5,3335C 2430.84,3334.17 2235.5,3286.83 2051.5,3193C 1839.58,3083.76 1668.75,2928.93 1539,2728.5C 1393.76,2495.23 1325.76,2240.89 1335,1965.5C 1353.08,1648.3 1470.08,1374.64 1686,1144.5C 1881.14,944.145 2116.98,817.312 2393.5,764C 2459.5,752.401 2525.83,745.567 2592.5,743.5 Z"/></g>
</svg>
